{"title":"Zanjeer (2013) 402MB Scam Rip - Xvid (Desidhamal)-][VAMPIRE ROCK","uid":8889684,"size":421839076,"categoryP":"video","categoryS":"movies","magnet":"?xt=urn:btih:b4a6c76fcc34570a709006f82b747dc1f2a91b1e&amp;dn=Zanjeer+%282013%29+402MB+Scam+Rip+-+Xvid+%28Desidhamal%29-%5D%5BVAMPIRE+ROCK&amp;tr=udp%3A%2F%2Ftracker.openbittorrent.com%3A80&amp;tr=udp%3A%2F%2Fopen.demonii.com%3A1337&amp;tr=udp%3A%2F%2Ftracker.coppersurfer.tk%3A6969&amp;tr=udp%3A%2F%2Fexodus.desync.com%3A6969","seeders":0,"leechers":0,"uploader":"bhoottt","files":10,"time":1378551877,"description":"Zanjeer (2013) 402MB Scam Rip - Xvid (Desidhamal)-][VAMPIRE ROCK'S]\n\n\n\n[URL=http://www.tinyuploads.com/gallery/view/Yff8ZT][IMG]http://i.tinyuploads.com/Yff8ZT.png[/IMG][/URL]\n[URL=http://www.tinyuploads.com/gallery/view/Wockt0][IMG]http://i.tinyuploads.com/Wockt0.png[/IMG][/URL]\n[URL=http://www.tinyuploads.com/gallery/view/5cB7MV][IMG]http://i.tinyuploads.com/5cB7MV.png[/IMG][/URL]\n[URL=http://www.tinyuploads.com/gallery/view/6npMgt][IMG]http://i.tinyuploads.com/6npMgt.png[/IMG][/URL]\n[URL=http://www.tinyuploads.com/gallery/view/qy49x0][IMG]http://i.tinyuploads.com/qy49x0.png[/IMG][/URL]\n[URL=http://www.tinyuploads.com/gallery/view/rPmzE9][IMG]http://i.tinyuploads.com/rPmzE9.png[/IMG][/URL]\n[URL=http://www.tinyuploads.com/gallery/view/m9fHYS][IMG]http://i.tinyuploads.com/m9fHYS.png[/IMG][/URL]\n\n\n\n\n\n\nINFO\n\n\n\nGeneral\n\nFormat                                   : AVI\nFormat/Info                              : Audio Video Interleave\nFile size                                : 401 MiB\nDuration                                 : 2h 2mn\nOverall bit rate                         : 460 Kbps\n\nVideo\nID                                       : 0\nFormat                                   : MPEG-4 Visual\nFormat profile                           : Advanced Simple@L5\nFormat settings, BVOP                    : 2\nFormat settings, QPel                    : No\nFormat settings, GMC                     : No warppoints\nFormat settings, Matrix                  : Default (H.263)\nCodec ID                                 : XVID\nCodec ID/Hint                            : XviD\nDuration                                 : 2h 2mn\nBit rate                                 : 260 Kbps\nWidth                                    : 352 pixels\nHeight                                   : 214 pixels\nDisplay aspect ratio                     : 16:10\nFrame rate                               : 25.000 fps\nColor space                              : YUV\nChroma subsampling                       : 4:2:0\nBit depth                                : 8 bits\nScan type                                : Progressive\nCompression mode                         : Lossy\nBits/(Pixel*Frame)                       : 0.138\nStream size                              : 227 MiB (57%)\nWriting library                          : XviD 1.2.1 (UTC 2008-12-04)\n\nAudio\nID                                       : 1\nFormat                                   : AC-3\nFormat/Info                              : Audio Coding 3\nMode extension                           : CM (complete main)\nFormat settings, Endianness              : Big\nCodec ID                                 : 2000\nDuration                                 : 2h 2mn\nBit rate mode                            : Constant\nBit rate                                 : 192 Kbps\nChannel(s)                               : 2 channels\nChannel positions                        : Front: L R\nSampling rate                            : 48.0 KHz\nBit depth                                : 16 bits\nCompression mode                         : Lossy\nStream size                              : 168 MiB (42%)\nAlignment                                : Aligned on interleaves\nInterleave, duration                     : 64 ms (1.60 video frames)\nInterleave, preload duration             : 192 ms\n\n\n\n\nHit Thanks if you like my &amp; Rip...\n\n","torrent":{"xt":"urn:btih:b4a6c76fcc34570a709006f82b747dc1f2a91b1e","amp;dn":"Zanjeer+%282013%29+402MB+Scam+Rip+-+Xvid+%28Desidhamal%29-%5D%5BVAMPIRE+ROCK","amp;tr":["udp%3A%2F%2Ftracker.openbittorrent.com%3A80","udp%3A%2F%2Fopen.demonii.com%3A1337","udp%3A%2F%2Ftracker.coppersurfer.tk%3A6969","udp%3A%2F%2Fexodus.desync.com%3A6969"],"infoHash":"b4a6c76fcc34570a709006f82b747dc1f2a91b1e","infoHashBuffer":{"type":"Buffer","data":[180,166,199,111,204,52,87,10,112,144,6,248,43,116,125,193,242,169,27,30]},"announce":[],"urlList":[]}}